# xmcd CD database file
#
# Track frame offsets:
#	150
#	12025
#	23499
#	36335
#	48694
#	61077
#	73594
#	86549
#	96628
#	110905
#	122674
#	135781
#	147469
#	161487
#	173787
#	185803
#	195537
#	207352
#	220588
#	232946
#	246587
#	258499
#	268884
#	279749
#	294448
#	307426
#	320186
#	333348
#
# Disc length: 4628 seconds
#
# Revision: 1
# Processed by: cddbd v1.5.2PL0 Copyright (c) Steve Scherf et al.
# Submitted via: CDex 1.94
#
DISCID=b712121c
DTITLE=Various Artist - Essential Chess Blues 1.2
DYEAR=2002
DGENRE=Blues
TTITLE0=Buddy Guy - Ten Years Ago
TTITLE1=Howlin' Wolf - Howlin' For My Baby
TTITLE2=Muddy Waters - I'm Your Hoochie Coochie Man
TTITLE3=Little Walter - Juke
TTITLE4=Elmore James - The Sun Is Shining
TTITLE5=John Lee Hooker - Leave My Wife Alone
TTITLE6=Jimmy Rogers - Luedella
TTITLE7=Otis Rush - I Can't Stop
TTITLE8=Lowell Fulson - Reconsider Baby
TTITLE9=Willie Malbon - I'm Mad
TTITLE10=Howlin' Wolf - Evil
TTITLE11=Sunnyland Slim - Fly Right, Little Girl 
TTITLE12=Muddy Waters - Rollin' Stone
TTITLE13=John Lee Hooker - High Priced Woman
TTITLE14=Sonny Boy Williamson - Ninety Nine
TTITLE15=Willie Dixon - 29 Ways
TTITLE16=Little Walter - Mellow Down Easy
TTITLE17=Percy Mayfield - Are You Out There?
TTITLE18=Jimmy Rogers - One Kiss
TTITLE19=Wiilie Nix - Just One Mistake
TTITLE20=Memphis Slim - Rockin' In The Pad
TTITLE21=Buddy Guy - First Time I Met The Blues
TTITLE22=Otis Rush - I'm Satisfied
TTITLE23=Muddy Waters - Baby Please Don't Go
TTITLE24=Robert Nighthawk - Six Three 0
TTITLE25=Howlin' Wolf - Forty Four
TTITLE26=Little Johnny Jones - Big Town Playboy
TTITLE27=John Lee Hooker - Union Station Blues
EXTD=
EXTT0=
EXTT1=
EXTT2=
EXTT3=
EXTT4=
EXTT5=
EXTT6=
EXTT7=
EXTT8=
EXTT9=
EXTT10=
EXTT11=
EXTT12=
EXTT13=
EXTT14=
EXTT15=
EXTT16=
EXTT17=
EXTT18=
EXTT19=
EXTT20=
EXTT21=
EXTT22=
EXTT23=
EXTT24=
EXTT25=
EXTT26=
EXTT27=
PLAYORDER=
